# xmcd
#
# Track frame offsets: 
#        150
#        15672
#        32042
#        50187
#        70007
#        86000
#        104755
#        119967
#        137490
#        155572
#        171875
#        188305
#        202927
#
# Disc length: 2923 seconds
#
# Revision: 0
# Processed by: cddbd v1.5.2PL0 Copyright (c) Steve Scherf et al.
# Submitted via: ExactAudioCopy v0.95b4
#
DISCID=b40b690d
DTITLE=Alexandra Burke - Overcome
DYEAR=2009
DGENRE=Pop
TTITLE0=Bad Boys
TTITLE1=Good Night Good Morning
TTITLE2=The Silence
TTITLE3=All Night Long
TTITLE4=Bury Me
TTITLE5=Broken Heels
TTITLE6=Dumb
TTITLE7=Overcome
TTITLE8=Gotta Go
TTITLE9=You Broke My Heart
TTITLE10=Nothing But The Girl
TTITLE11=They Don't Know
TTITLE12=Hallelujah
EXTD=
EXTT0=
EXTT1=
EXTT2=
EXTT3=
EXTT4=
EXTT5=
EXTT6=
EXTT7=
EXTT8=
EXTT9=
EXTT10=
EXTT11=
EXTT12=
PLAYORDER=
